<?xml version="1.0" encoding="UTF-8" standalone="no"?>
<!-- Uploaded to: SVG Repo, www.svgrepo.com, Generator: SVG Repo Mixer Tools -->

<svg
   fill="#000000"
   width="800px"
   height="800px"
   viewBox="0 0 24 24"
   id="denarius-circle"
   data-name="Flat Color"
   class="icon flat-color"
   version="1.1"
   sodipodi:docname="icon.svg"
   inkscape:version="1.2.1 (9c6d41e, 2022-07-14)"
   xmlns:inkscape="http://www.inkscape.org/namespaces/inkscape"
   xmlns:sodipodi="http://sodipodi.sourceforge.net/DTD/sodipodi-0.dtd"
   xmlns="http://www.w3.org/2000/svg"
   xmlns:svg="http://www.w3.org/2000/svg">
  <defs
     id="defs1046" />
  <sodipodi:namedview
     id="namedview1044"
     pagecolor="#ffffff"
     bordercolor="#000000"
     borderopacity="0.25"
     inkscape:showpageshadow="2"
     inkscape:pageopacity="0.0"
     inkscape:pagecheckerboard="0"
     inkscape:deskcolor="#d1d1d1"
     showgrid="false"
     inkscape:zoom="0.295"
     inkscape:cx="250.84746"
     inkscape:cy="400"
     inkscape:window-width="1512"
     inkscape:window-height="832"
     inkscape:window-x="0"
     inkscape:window-y="38"
     inkscape:window-maximized="1"
     inkscape:current-layer="denarius-circle" />
  <circle
     id="primary"
     cx="12"
     cy="12"
     r="10"
     style="fill: rgb(0, 0, 0);" />
  <path
     id="secondary"
     d="M14,13h1a1,1,0,0,0,0-2H14l1.8-2.4a1,1,0,0,0-1.6-1.2L12,10.33,9.8,7.4A1,1,0,0,0,8.2,8.6L10,11H9a1,1,0,0,0,0,2h1L8.2,15.4a1,1,0,1,0,1.6,1.2L12,13.67l2.2,2.93a1,1,0,0,0,.8.4,1,1,0,0,0,.6-.2,1,1,0,0,0,.2-1.4Z"
     style="fill:#d77039;fill-opacity:1" />
</svg>
